<?xml version="1.0" encoding="UTF-8" standalone="no"?>
<!-- Created with Inkscape (http://www.inkscape.org/) -->

<svg
   xmlns:dc="http://purl.org/dc/elements/1.1/"
   xmlns:cc="http://creativecommons.org/ns#"
   xmlns:rdf="http://www.w3.org/1999/02/22-rdf-syntax-ns#"
   xmlns:svg="http://www.w3.org/2000/svg"
   xmlns="http://www.w3.org/2000/svg"
   xmlns:xlink="http://www.w3.org/1999/xlink"
   xmlns:sodipodi="http://sodipodi.sourceforge.net/DTD/sodipodi-0.dtd"
   xmlns:inkscape="http://www.inkscape.org/namespaces/inkscape"
   width="210mm"
   height="297mm"
   viewBox="0 0 210 297"
   version="1.1"
   id="svg8"
   inkscape:version="0.92.3 (2405546, 2018-03-11)"
   sodipodi:docname="rysunek.svg">
  <defs
     id="defs2">
    <linearGradient
       inkscape:collect="always"
       id="linearGradient4998">
      <stop
         style="stop-color:#00ff00;stop-opacity:1;"
         offset="0"
         id="stop4994" />
      <stop
         style="stop-color:#00ff00;stop-opacity:0;"
         offset="1"
         id="stop4996" />
    </linearGradient>
    <linearGradient
       inkscape:collect="always"
       id="linearGradient4988">
      <stop
         style="stop-color:#00ff00;stop-opacity:1;"
         offset="0"
         id="stop4984" />
      <stop
         style="stop-color:#00ff00;stop-opacity:0;"
         offset="1"
         id="stop4986" />
    </linearGradient>
    <linearGradient
       inkscape:collect="always"
       id="linearGradient4929">
      <stop
         style="stop-color:#ff3a00;stop-opacity:1;"
         offset="0"
         id="stop4925" />
      <stop
         style="stop-color:#ff3a00;stop-opacity:0;"
         offset="1"
         id="stop4927" />
    </linearGradient>
    <linearGradient
       inkscape:collect="always"
       xlink:href="#linearGradient4929"
       id="linearGradient4931"
       x1="166.67224"
       y1="297.92505"
       x2="303.29949"
       y2="297.92505"
       gradientUnits="userSpaceOnUse"
       gradientTransform="matrix(0.66924009,0,0,0.71019738,-48.815701,-96.571206)" />
    <linearGradient
       inkscape:collect="always"
       xlink:href="#linearGradient4929"
       id="linearGradient4945"
       x1="166.67224"
       y1="297.92505"
       x2="303.2995"
       y2="297.92505"
       gradientUnits="userSpaceOnUse"
       gradientTransform="matrix(0.66924009,0,0,0.71019738,-48.815701,-96.571206)" />
    <linearGradient
       inkscape:collect="always"
       xlink:href="#linearGradient4988"
       id="linearGradient4990"
       x1="185.93458"
       y1="356.81081"
       x2="282.51571"
       y2="356.81081"
       gradientUnits="userSpaceOnUse"
       gradientTransform="matrix(0.66924009,0,0,0.71019738,-48.815701,-96.571206)" />
    <linearGradient
       inkscape:collect="always"
       xlink:href="#linearGradient4998"
       id="linearGradient5000"
       x1="166.76413"
       y1="297.92965"
       x2="303.22043"
       y2="297.92965"
       gradientUnits="userSpaceOnUse"
       gradientTransform="matrix(0.66924009,0,0,0.71019738,-48.815701,-96.571206)" />
    <linearGradient
       inkscape:collect="always"
       xlink:href="#linearGradient4929"
       id="linearGradient987"
       x1="42.178406"
       y1="86.989799"
       x2="82.184044"
       y2="86.989799"
       gradientUnits="userSpaceOnUse"
       gradientTransform="translate(1.0152614,6.9555409)" />
  </defs>
  <sodipodi:namedview
     id="base"
     pagecolor="#ffffff"
     bordercolor="#666666"
     borderopacity="1.0"
     inkscape:pageopacity="0.0"
     inkscape:pageshadow="2"
     inkscape:zoom="0.64"
     inkscape:cx="134.82538"
     inkscape:cy="371.18854"
     inkscape:document-units="mm"
     inkscape:current-layer="g4951"
     showgrid="true"
     showguides="true"
     inkscape:guide-bbox="true"
     inkscape:window-width="1920"
     inkscape:window-height="1017"
     inkscape:window-x="-8"
     inkscape:window-y="-8"
     inkscape:window-maximized="1">
    <inkscape:grid
       type="xygrid"
       id="grid29" />
  </sodipodi:namedview>
  <metadata
     id="metadata5">
    <rdf:RDF>
      <cc:Work
         rdf:about="">
        <dc:format>image/svg+xml</dc:format>
        <dc:type
           rdf:resource="http://purl.org/dc/dcmitype/StillImage" />
        <dc:title />
      </cc:Work>
    </rdf:RDF>
  </metadata>
  <g
     inkscape:label="Layer 1"
     inkscape:groupmode="layer"
     id="layer1">
    <g
       id="g83">
      <g
         id="g75">
        <g
           id="g68">
          <g
             transform="translate(-14.552078,2.6458333)"
             id="g59">
            <g
               id="g62" />
          </g>
        </g>
      </g>
    </g>
    <g
       id="g4951"
       transform="matrix(2.5294114,0,0,2.5526315,-54.006103,-89.566057)">
      <path
         sodipodi:nodetypes="cscccc"
         inkscape:connector-curvature="0"
         id="path105"
         d="M 63.192344,112.13262 C 61.86013,110.20831 60.561041,108.44963 59.308051,106.83248 49.362826,93.996877 42.321727,90.077815 44.671512,83.028458 c 3.818836,-9.814145 11.906249,-9.260417 18.520832,0 6.614584,-9.260417 16.174383,-9.647687 18.520834,-1.322917 2.645833,9.260417 -6.454282,12.186472 -18.520834,30.427079 z"
         style="fill:#d40000;fill-opacity:1;stroke:url(#linearGradient987);stroke-width:2.06500006;stroke-linecap:butt;stroke-linejoin:round;stroke-miterlimit:4;stroke-dasharray:none;stroke-opacity:1" />
      <path
         inkscape:connector-curvature="0"
         id="path4629"
         d="m 44.702276,94.430091 h 15.351986 l 3.168848,6.614579 V 87.815508 l 3.107316,6.614583 14.644382,0"
         style="fill:#ff0000;stroke:#00ffff;stroke-width:2.06493926;stroke-linecap:round;stroke-linejoin:round;stroke-miterlimit:4;stroke-dasharray:none;stroke-opacity:1"
         sodipodi:nodetypes="cccccc" />
    </g>
    <path
       style="opacity:0;fill:#ff0000;stroke:#000000;stroke-width:0.96083766;stroke-linecap:round;stroke-linejoin:round;stroke-miterlimit:4;stroke-dasharray:none;stroke-opacity:1"
       d="m 104.94383,136.83933 c -0.89752,-2.40661 -1.2314,-2.95598 -2.03062,-3.3413 -0.45534,-0.21957 -1.24373,-0.23111 -15.94204,-0.2338 -12.873465,-0.002 -15.485226,-0.0317 -15.595691,-0.17501 -0.07297,-0.0948 -0.863693,-1.19984 -1.757157,-2.45594 -3.371563,-4.74005 -5.081693,-8.11617 -5.99216,-11.82956 -0.301655,-1.23031 -0.3672,-1.77883 -0.419032,-3.50657 -0.115746,-3.85802 0.50766,-6.32776 2.804712,-11.11151 3.374771,-7.028147 7.815595,-11.334184 12.998916,-12.60438 1.351566,-0.331204 4.718516,-0.330587 6.15464,0.0014 2.713603,0.62679 5.605732,1.98696 8.324368,3.914921 2.328981,1.651622 3.942695,3.081098 6.258396,5.543839 2.134018,2.2695 3.656918,4.14409 5.604318,6.89844 1.43372,2.02784 1.85702,2.39102 2.87801,2.4694 0.56012,0.0429 0.82305,-0.008 1.34937,-0.26413 0.57883,-0.2812 0.77486,-0.48984 1.71165,-1.82164 5.67251,-8.06415 12.36523,-13.709121 19.07427,-16.088164 4.75023,-1.684423 8.96679,-1.721035 12.73133,-0.11059 5.37073,2.297685 8.92437,7.825306 10.3846,16.153044 0.15885,0.90589 0.21247,1.88131 0.21627,3.93146 0.005,2.3858 -0.0298,2.89862 -0.27262,4.10241 -0.95564,4.73758 -3.27035,9.24356 -8.0068,15.58654 l -1.01802,1.36334 h -13.7109 -13.71087 l -3.12393,-8.28659 c -3.34939,-8.88471 -3.32013,-8.82209 -4.33592,-9.27169 -0.57948,-0.25662 -1.67426,-0.25232 -2.1609,0.008 -0.49791,0.26654 -1.01095,0.77716 -1.25954,1.25374 -0.17934,0.3436 -0.20413,1.43259 -0.25823,11.24896 l -0.0597,10.8685 -0.83655,-2.24317 z"
       id="path4921"
       inkscape:connector-curvature="0" />
    <path
       style="opacity:0;fill:url(#linearGradient4931);fill-opacity:1;stroke:#000000;stroke-width:0.96083766;stroke-linecap:round;stroke-linejoin:round;stroke-miterlimit:4;stroke-dasharray:none;stroke-opacity:1"
       d="m 104.94383,136.83933 c -0.89752,-2.40661 -1.2314,-2.95598 -2.03062,-3.3413 -0.45534,-0.21957 -1.24373,-0.23111 -15.94204,-0.2338 -12.873465,-0.002 -15.485226,-0.0317 -15.595691,-0.17501 -0.07297,-0.0948 -0.863693,-1.19984 -1.757157,-2.45594 -3.371563,-4.74005 -5.081693,-8.11617 -5.99216,-11.82956 -0.301655,-1.23031 -0.3672,-1.77883 -0.419032,-3.50657 -0.115746,-3.85802 0.50766,-6.32776 2.804712,-11.11151 3.374771,-7.028147 7.815595,-11.334184 12.998916,-12.60438 1.351566,-0.331204 4.718516,-0.330587 6.15464,0.0014 2.713603,0.62679 5.605732,1.98696 8.324368,3.914921 2.328981,1.651622 3.942695,3.081098 6.258396,5.543839 2.134018,2.2695 3.656918,4.14409 5.604318,6.89844 1.43372,2.02784 1.85702,2.39102 2.87801,2.4694 0.56012,0.0429 0.82305,-0.008 1.34937,-0.26413 0.57883,-0.2812 0.77486,-0.48984 1.71165,-1.82164 5.67251,-8.06415 12.36523,-13.709121 19.07427,-16.088164 4.75023,-1.684423 8.96679,-1.721035 12.73133,-0.11059 5.37073,2.297685 8.92437,7.825306 10.3846,16.153044 0.15885,0.90589 0.21247,1.88131 0.21627,3.93146 0.005,2.3858 -0.0298,2.89862 -0.27262,4.10241 -0.95564,4.73758 -3.27035,9.24356 -8.0068,15.58654 l -1.01802,1.36334 h -13.7109 -13.71087 l -3.12393,-8.28659 c -3.34939,-8.88471 -3.32013,-8.82209 -4.33592,-9.27169 -0.57948,-0.25662 -1.67426,-0.25232 -2.1609,0.008 -0.49791,0.26654 -1.01095,0.77716 -1.25954,1.25374 -0.17934,0.3436 -0.20413,1.43259 -0.25823,11.24896 l -0.0597,10.8685 -0.83655,-2.24317 z"
       id="path4923"
       inkscape:connector-curvature="0" />
    <path
       style="opacity:0;fill:#ff3a00;fill-opacity:1;stroke:#000000;stroke-width:0.96083766;stroke-linecap:round;stroke-linejoin:round;stroke-miterlimit:4;stroke-dasharray:none;stroke-opacity:1"
       d="m 104.94383,136.83933 c -0.89752,-2.40661 -1.2314,-2.95598 -2.03062,-3.3413 -0.45534,-0.21957 -1.24373,-0.23111 -15.94204,-0.2338 -12.873465,-0.002 -15.485226,-0.0317 -15.595691,-0.17501 -0.07297,-0.0948 -0.863693,-1.19984 -1.757157,-2.45594 -3.371563,-4.74005 -5.081693,-8.11617 -5.99216,-11.82956 -0.301655,-1.23031 -0.3672,-1.77883 -0.419032,-3.50657 -0.115746,-3.85802 0.50766,-6.32776 2.804712,-11.11151 3.374771,-7.028147 7.815595,-11.334184 12.998916,-12.60438 1.351566,-0.331204 4.718516,-0.330587 6.15464,0.0014 2.713603,0.62679 5.605732,1.98696 8.324368,3.914921 2.328981,1.651622 3.942695,3.081098 6.258396,5.543839 2.134018,2.2695 3.656918,4.14409 5.604318,6.89844 1.43372,2.02784 1.85702,2.39102 2.87801,2.4694 0.56012,0.0429 0.82305,-0.008 1.34937,-0.26413 0.57883,-0.2812 0.77486,-0.48984 1.71165,-1.82164 5.67251,-8.06415 12.36523,-13.709121 19.07427,-16.088164 4.75023,-1.684423 8.96679,-1.721035 12.73133,-0.11059 5.37073,2.297685 8.92437,7.825306 10.3846,16.153044 0.15885,0.90589 0.21247,1.88131 0.21627,3.93146 0.005,2.3858 -0.0298,2.89862 -0.27262,4.10241 -0.95564,4.73758 -3.27035,9.24356 -8.0068,15.58654 l -1.01802,1.36334 h -13.7109 -13.71087 l -3.12393,-8.28659 c -3.34939,-8.88471 -3.32013,-8.82209 -4.33592,-9.27169 -0.57948,-0.25662 -1.67426,-0.25232 -2.1609,0.008 -0.49791,0.26654 -1.01095,0.77716 -1.25954,1.25374 -0.17934,0.3436 -0.20413,1.43259 -0.25823,11.24896 l -0.0597,10.8685 -0.83655,-2.24317 z"
       id="path4933"
       inkscape:connector-curvature="0" />
    <path
       style="opacity:0;fill:#ff3a00;fill-opacity:1;stroke:#000000;stroke-width:0.96083766;stroke-linecap:round;stroke-linejoin:round;stroke-miterlimit:4;stroke-dasharray:none;stroke-opacity:1"
       d="m 104.94383,136.83933 c -0.89752,-2.40661 -1.2314,-2.95598 -2.03062,-3.3413 -0.45534,-0.21957 -1.24373,-0.23111 -15.94204,-0.2338 -12.873465,-0.002 -15.485226,-0.0317 -15.595691,-0.17501 -0.07297,-0.0948 -0.863693,-1.19984 -1.757157,-2.45594 -3.371563,-4.74005 -5.081693,-8.11617 -5.99216,-11.82956 -0.301655,-1.23031 -0.3672,-1.77883 -0.419032,-3.50657 -0.115746,-3.85802 0.50766,-6.32776 2.804712,-11.11151 3.374771,-7.028147 7.815595,-11.334184 12.998916,-12.60438 1.351566,-0.331204 4.718516,-0.330587 6.15464,0.0014 2.713603,0.62679 5.605732,1.98696 8.324368,3.914921 2.328981,1.651622 3.942695,3.081098 6.258396,5.543839 2.134018,2.2695 3.656918,4.14409 5.604318,6.89844 1.43372,2.02784 1.85702,2.39102 2.87801,2.4694 0.56012,0.0429 0.82305,-0.008 1.34937,-0.26413 0.57883,-0.2812 0.77486,-0.48984 1.71165,-1.82164 5.67251,-8.06415 12.36523,-13.709121 19.07427,-16.088164 4.75023,-1.684423 8.96679,-1.721035 12.73133,-0.11059 5.37073,2.297685 8.92437,7.825306 10.3846,16.153044 0.15885,0.90589 0.21247,1.88131 0.21627,3.93146 0.005,2.3858 -0.0298,2.89862 -0.27262,4.10241 -0.95564,4.73758 -3.27035,9.24356 -8.0068,15.58654 l -1.01802,1.36334 h -13.7109 -13.71087 l -3.12393,-8.28659 c -3.34939,-8.88471 -3.32013,-8.82209 -4.33592,-9.27169 -0.57948,-0.25662 -1.67426,-0.25232 -2.1609,0.008 -0.49791,0.26654 -1.01095,0.77716 -1.25954,1.25374 -0.17934,0.3436 -0.20413,1.43259 -0.25823,11.24896 l -0.0597,10.8685 -0.83655,-2.24317 z"
       id="path4935"
       inkscape:connector-curvature="0" />
    <path
       style="opacity:0;fill:url(#linearGradient4945);fill-opacity:1;stroke:#000000;stroke-width:0.96083766;stroke-linecap:round;stroke-linejoin:round;stroke-miterlimit:4;stroke-dasharray:none;stroke-opacity:1"
       d="m 104.94383,136.83933 c -0.89752,-2.40661 -1.2314,-2.95598 -2.03062,-3.3413 -0.45534,-0.21957 -1.24373,-0.23111 -15.94204,-0.2338 -12.873465,-0.002 -15.485226,-0.0317 -15.595691,-0.17501 -0.07297,-0.0948 -0.863693,-1.19984 -1.757157,-2.45594 -3.371563,-4.74005 -5.081693,-8.11617 -5.99216,-11.82956 -0.301655,-1.23031 -0.3672,-1.77883 -0.419032,-3.50657 -0.115746,-3.85802 0.50766,-6.32776 2.804712,-11.11151 3.374771,-7.028147 7.815595,-11.334184 12.998916,-12.60438 1.351566,-0.331204 4.718516,-0.330587 6.15464,0.0014 2.713603,0.62679 5.605732,1.98696 8.324368,3.914921 2.328981,1.651622 3.942695,3.081098 6.258396,5.543839 2.134018,2.2695 3.656918,4.14409 5.604318,6.89844 1.43372,2.02784 1.85702,2.39102 2.87801,2.4694 0.56012,0.0429 0.82305,-0.008 1.34937,-0.26413 0.57883,-0.2812 0.77486,-0.48984 1.71165,-1.82164 5.67251,-8.06415 12.36523,-13.709121 19.07427,-16.088164 4.75023,-1.684423 8.96679,-1.721035 12.73133,-0.11059 5.37073,2.297685 8.92437,7.825306 10.3846,16.153044 0.15885,0.90589 0.21247,1.88131 0.21627,3.93146 0.005,2.3858 -0.0298,2.89862 -0.27262,4.10241 -0.95564,4.73758 -3.27035,9.24356 -8.0068,15.58654 l -1.01802,1.36334 h -13.7109 -13.71087 l -3.12393,-8.28659 c -3.34939,-8.88471 -3.32013,-8.82209 -4.33592,-9.27169 -0.57948,-0.25662 -1.67426,-0.25232 -2.1609,0.008 -0.49791,0.26654 -1.01095,0.77716 -1.25954,1.25374 -0.17934,0.3436 -0.20413,1.43259 -0.25823,11.24896 l -0.0597,10.8685 -0.83655,-2.24317 z"
       id="path4937"
       inkscape:connector-curvature="0" />
    <path
       style="opacity:0;fill:#ff3a00;fill-opacity:1;stroke:#000000;stroke-width:0.96083766;stroke-linecap:round;stroke-linejoin:round;stroke-miterlimit:4;stroke-dasharray:none;stroke-opacity:1"
       d="m 104.94383,136.83933 c -0.89752,-2.40661 -1.2314,-2.95598 -2.03062,-3.3413 -0.45534,-0.21957 -1.24373,-0.23111 -15.94204,-0.2338 -12.873465,-0.002 -15.485226,-0.0317 -15.595691,-0.17501 -0.07297,-0.0948 -0.863693,-1.19984 -1.757157,-2.45594 -3.371563,-4.74005 -5.081693,-8.11617 -5.99216,-11.82956 -0.301655,-1.23031 -0.3672,-1.77883 -0.419032,-3.50657 -0.115746,-3.85802 0.50766,-6.32776 2.804712,-11.11151 3.374771,-7.028147 7.815595,-11.334184 12.998916,-12.60438 1.351566,-0.331204 4.718516,-0.330587 6.15464,0.0014 2.713603,0.62679 5.605732,1.98696 8.324368,3.914921 2.328981,1.651622 3.942695,3.081098 6.258396,5.543839 2.134018,2.2695 3.656918,4.14409 5.604318,6.89844 1.43372,2.02784 1.85702,2.39102 2.87801,2.4694 0.56012,0.0429 0.82305,-0.008 1.34937,-0.26413 0.57883,-0.2812 0.77486,-0.48984 1.71165,-1.82164 5.67251,-8.06415 12.36523,-13.709121 19.07427,-16.088164 4.75023,-1.684423 8.96679,-1.721035 12.73133,-0.11059 5.37073,2.297685 8.92437,7.825306 10.3846,16.153044 0.15885,0.90589 0.21247,1.88131 0.21627,3.93146 0.005,2.3858 -0.0298,2.89862 -0.27262,4.10241 -0.95564,4.73758 -3.27035,9.24356 -8.0068,15.58654 l -1.01802,1.36334 h -13.7109 -13.71087 l -3.12393,-8.28659 c -3.34939,-8.88471 -3.32013,-8.82209 -4.33592,-9.27169 -0.57948,-0.25662 -1.67426,-0.25232 -2.1609,0.008 -0.49791,0.26654 -1.01095,0.77716 -1.25954,1.25374 -0.17934,0.3436 -0.20413,1.43259 -0.25823,11.24896 l -0.0597,10.8685 -0.83655,-2.24317 z"
       id="path4947"
       inkscape:connector-curvature="0" />
    <path
       style="opacity:0;fill:url(#linearGradient4990);fill-opacity:1;fill-rule:nonzero;stroke:#00ffff;stroke-width:0.67941487;stroke-linecap:round;stroke-linejoin:round;stroke-miterlimit:4;stroke-dasharray:none;stroke-opacity:1"
       d="m 107.14373,178.90386 c -5.82475,-8.59651 -12.673033,-17.67727 -20.445889,-27.11106 -0.853398,-1.03575 -3.538798,-4.26408 -5.967539,-7.17406 -2.428741,-2.90998 -4.498128,-5.402 -4.598647,-5.5378 l -0.182623,-0.24694 12.014451,0.0215 12.014426,0.0215 3.092411,8.20536 3.0924,8.20534 0.4298,0.45701 c 1.29825,1.38041 3.4334,0.99922 4.24666,-0.75818 l 0.23422,-0.5059 0.0258,-10.76113 0.0258,-10.76111 0.79107,2.08655 c 0.43511,1.14758 0.88864,2.26316 1.00787,2.47903 0.26003,0.47086 0.63534,0.82209 1.14962,1.07577 0.37921,0.18709 0.41543,0.18763 13.11626,0.23246 l 12.73602,0.0448 -3.51492,4.25963 c -8.45906,10.25121 -12.9148,15.92861 -17.91152,22.82252 -2.86279,3.94974 -6.3963,9.1006 -8.90457,12.98033 -0.62744,0.97051 -1.15983,1.76586 -1.18305,1.76745 -0.0228,0.001 -0.59366,-0.81093 -1.26757,-1.80554 z"
       id="path4982"
       inkscape:connector-curvature="0" />
    <path
       style="opacity:0;fill:url(#linearGradient5000);fill-opacity:1;fill-rule:nonzero;stroke:#00ffff;stroke-width:0.68007773;stroke-linecap:round;stroke-linejoin:round;stroke-miterlimit:4;stroke-dasharray:none;stroke-opacity:1"
       d="m 104.99702,137.03308 c -0.41381,-1.10533 -0.81887,-2.15091 -0.90014,-2.32353 -0.22107,-0.46974 -0.74074,-0.98213 -1.26289,-1.24537 l -0.46478,-0.23433 -15.478324,-0.0242 -15.478323,-0.0242 -1.084518,-1.48354 c -6.694849,-9.15812 -8.433609,-15.2235 -6.424905,-22.4123 0.68352,-2.44623 2.745545,-6.76496 4.495753,-9.415968 4.006661,-6.068866 9.236194,-9.098669 14.801936,-8.575758 7.270641,0.683078 14.871295,6.365257 22.059071,16.491116 1.32506,1.86671 1.69435,2.26717 2.28899,2.48217 0.49346,0.1785 1.31583,0.1785 1.80929,0 0.57653,-0.20856 0.98209,-0.63146 2.04387,-2.13177 0.52963,-0.74838 1.4692,-2.00639 2.08792,-2.79552 1.22942,-1.56807 4.27218,-4.85987 5.61112,-6.070428 4.37644,-3.956794 9.0511,-6.649514 13.43619,-7.739572 1.79269,-0.445659 2.59173,-0.538157 4.64774,-0.538157 2.03461,0 2.50558,0.05368 4.05546,0.463482 5.45647,1.44228 9.52037,6.128751 11.45269,13.207225 0.45322,1.66019 0.80633,3.48905 0.97921,5.07155 0.18541,1.69739 0.1247,4.38831 -0.13456,5.95194 -0.81817,4.93726 -3.1819,9.66402 -8.13403,16.26554 l -0.92516,1.23334 -13.78266,-0.0215 -13.78264,-0.0215 -3.04688,-8.07241 c -1.67578,-4.43985 -3.13305,-8.21873 -3.23833,-8.39756 -0.6193,-1.05167 -2.12746,-1.49534 -3.2422,-0.95378 -0.59342,0.28832 -1.04844,0.77002 -1.33072,1.40884 l -0.22132,0.50098 -0.0422,10.70823 -0.0422,10.70823 z"
       id="path4992"
       inkscape:connector-curvature="0" />
    <ellipse
       style="opacity:0;fill:#000000;fill-opacity:1;fill-rule:nonzero;stroke:#00ffff;stroke-width:5.38069105;stroke-linecap:round;stroke-linejoin:round;stroke-miterlimit:4;stroke-dasharray:none;stroke-opacity:1"
       id="path5014"
       cx="118.49435"
       cy="155.56285"
       rx="56.88541"
       ry="51.489307" />
    <ellipse
       style="opacity:0;fill:#000000;fill-opacity:1;fill-rule:nonzero;stroke:#00ffff;stroke-width:5.38069105;stroke-linecap:round;stroke-linejoin:round;stroke-miterlimit:4;stroke-dasharray:none;stroke-opacity:1"
       id="path5016"
       cx="73.320602"
       cy="132.4814"
       rx="55.212307"
       ry="60.366779" />
  </g>
</svg>
